<svg xmlns="http://www.w3.org/2000/svg" xmlns:xlink="http://www.w3.org/1999/xlink" viewBox="0 0 1500 1214"><defs><linearGradient id="j" x1="419.93" x2="1228.49" y1="842.48" y2="842.48" gradientUnits="userSpaceOnUse"><stop offset=".26" stop-color="#c4c9e5"/><stop offset=".43" stop-color="#cbd0e8"/><stop offset=".7" stop-color="#dfe2f1"/><stop offset="1" stop-color="#fff"/></linearGradient><linearGradient id="k" x1="1209.17" x2="1419.86" y1="740" y2="740" gradientUnits="userSpaceOnUse"><stop offset="0" stop-color="#d1d7f3"/><stop offset=".77" stop-color="#edeef9"/><stop offset="1" stop-color="#f6f6fb"/></linearGradient><linearGradient id="l" x1="1015.09" x2="1399.37" y1="787.61" y2="787.61" gradientUnits="userSpaceOnUse"><stop offset=".42" stop-color="#5652cc"/><stop offset=".59" stop-color="#362e94"/></linearGradient><linearGradient id="m" x1="1015.09" x2="1192.15" y1="751.35" y2="751.35" gradientUnits="userSpaceOnUse"><stop offset="0" stop-color="#e8ecf7"/><stop offset="1" stop-color="#fff"/></linearGradient><linearGradient id="a" x1="1207.23" x2="1337.1" y1="721.73" y2="721.73" gradientUnits="userSpaceOnUse"><stop offset="0" stop-color="#c4c9e5"/><stop offset=".08" stop-color="#c9cee7"/><stop offset=".68" stop-color="#f0f1f8"/><stop offset="1" stop-color="#fff"/></linearGradient><linearGradient id="b" x1="1122.03" x2="1292.43" y1="724.9" y2="724.9" gradientUnits="userSpaceOnUse"><stop offset=".42" stop-color="#5652cc"/><stop offset=".51" stop-color="#433dac"/><stop offset=".56" stop-color="#362e94"/></linearGradient><linearGradient id="n" x1="1122.03" x2="1292.43" y1="671.18" y2="671.18" gradientUnits="userSpaceOnUse"><stop offset=".38" stop-color="#6b67e9"/><stop offset=".55" stop-color="#4e4ac0"/><stop offset=".64" stop-color="#423eaf"/></linearGradient><linearGradient id="o" x1="1207.23" x2="1253.87" y1="631.28" y2="631.28" xlink:href="#a"/><linearGradient id="c" x1="1120.95" x2="1293.5" y1="543.94" y2="543.94" gradientUnits="userSpaceOnUse"><stop offset="0" stop-color="#e57139"/><stop offset=".09" stop-color="#c46131"/><stop offset=".28" stop-color="#71381c"/><stop offset=".52"/><stop offset=".6" stop-color="#211008"/><stop offset=".78" stop-color="#74391d"/><stop offset="1" stop-color="#e57139"/></linearGradient><linearGradient id="q" x1="1207.23" x2="1248.36" y1="570.51" y2="570.51" gradientUnits="userSpaceOnUse"><stop offset="0" stop-color="#c4c9e5"/><stop offset=".52" stop-color="#d9def0"/><stop offset="1" stop-color="#e8ecf7"/></linearGradient><linearGradient id="r" x1="1120.95" x2="1293.51" y1="583.37" y2="583.37" gradientUnits="userSpaceOnUse"><stop offset=".45" stop-color="#5652cc"/><stop offset=".56" stop-color="#423eaf"/></linearGradient><linearGradient id="s" x1="778.75" x2="1060.91" y1="837.78" y2="837.78" gradientUnits="userSpaceOnUse"><stop offset="0" stop-color="#c4c9e5"/><stop offset=".64" stop-color="#e7e9f4"/><stop offset="1" stop-color="#f6f6fb"/></linearGradient><linearGradient id="d" x1="466.68" x2="726.73" y1="757.05" y2="757.05" gradientUnits="userSpaceOnUse"><stop offset="0" stop-color="#e8ecf7"/><stop offset=".47" stop-color="#f8f9fd"/><stop offset=".85" stop-color="#fff"/></linearGradient><linearGradient id="t" x1="185.1" x2="365.89" y1="914.17" y2="914.17" xlink:href="#a"/><linearGradient id="u" x1="80.14" x2="290.05" y1="918.07" y2="918.07" xlink:href="#b"/><linearGradient id="v" x1="80.14" x2="290.05" y1="855.91" y2="855.91" xlink:href="#c"/><linearGradient id="w" x1="80.14" x2="290.05" y1="834.35" y2="834.35" xlink:href="#b"/><linearGradient id="x" x1="185.1" x2="259.31" y1="760.49" y2="760.49" xlink:href="#a"/><linearGradient id="z" x1="516.78" x2="681.91" y1="729.95" y2="729.95" xlink:href="#d"/><linearGradient id="A" x1="759.77" x2="849.29" y1="868.62" y2="868.62" gradientUnits="userSpaceOnUse"><stop offset="0" stop-color="#dae0f5"/><stop offset=".05" stop-color="#dde2f6"/><stop offset=".52" stop-color="#eff1fa"/><stop offset=".85" stop-color="#f6f6fb"/></linearGradient><linearGradient id="B" x1="516.78" x2="587.26" y1="806" y2="806" gradientUnits="userSpaceOnUse"><stop offset="0" stop-color="#e8ecf7"/><stop offset=".33" stop-color="#eff1f9"/><stop offset=".85" stop-color="#f6f6fb"/></linearGradient><linearGradient id="C" x1="588.79" x2="837.27" y1="662.18" y2="662.18" xlink:href="#d"/><linearGradient id="e" x1="547.65" x2="555.17" y1="632.55" y2="644.51" gradientUnits="userSpaceOnUse"><stop offset="0" stop-color="#d1d7f3"/><stop offset="1" stop-color="#fff"/></linearGradient><linearGradient id="E" x1="547.65" x2="555.17" y1="626.29" y2="638.25" xlink:href="#e"/><linearGradient id="F" x1="547.65" x2="555.17" y1="620.02" y2="631.99" xlink:href="#e"/><linearGradient id="G" x1="547.65" x2="555.17" y1="613.76" y2="625.73" xlink:href="#e"/><linearGradient id="H" x1="547.65" x2="555.17" y1="607.5" y2="619.47" xlink:href="#e"/><linearGradient id="I" x1="547.65" x2="555.17" y1="601.24" y2="613.21" xlink:href="#e"/><linearGradient id="J" x1="547.65" x2="555.17" y1="594.98" y2="606.95" xlink:href="#e"/><linearGradient id="K" x1="547.65" x2="555.17" y1="588.72" y2="600.69" xlink:href="#e"/><linearGradient id="L" x1="547.65" x2="555.17" y1="496.5" y2="508.47" xlink:href="#e"/><linearGradient id="M" x1="547.65" x2="555.17" y1="541.92" y2="553.89" xlink:href="#e"/><linearGradient id="N" x1="547.65" x2="555.17" y1="535.66" y2="547.63" xlink:href="#e"/><linearGradient id="f" x1="954.84" x2="1036" y1="801.62" y2="942.21" gradientUnits="userSpaceOnUse"><stop offset=".18" stop-color="#6b67e9"/><stop offset=".26" stop-color="#423eaf"/><stop offset=".37" stop-color="#423eaf"/><stop offset=".44" stop-color="#6b67e9"/><stop offset=".76" stop-color="#6b67e9"/><stop offset=".83" stop-color="#423eaf"/></linearGradient><linearGradient id="O" x1="946.23" x2="1027.4" y1="806.53" y2="947.12" xlink:href="#f"/><linearGradient id="P" x1="937.63" x2="1018.8" y1="811.44" y2="952.03" xlink:href="#f"/><linearGradient id="Q" x1="929.03" x2="1010.19" y1="816.35" y2="956.94" xlink:href="#f"/><linearGradient id="R" x1="920.42" x2="1001.59" y1="821.26" y2="961.85" xlink:href="#f"/><linearGradient id="S" x1="911.82" x2="992.99" y1="826.17" y2="966.76" xlink:href="#f"/><linearGradient id="T" x1="903.22" x2="984.38" y1="831.08" y2="971.67" xlink:href="#f"/><linearGradient id="V" x1="757.6" x2="796.35" y1="716.91" y2="649.81" gradientUnits="userSpaceOnUse"><stop offset="0" stop-color="#dae0f5"/><stop offset="1" stop-color="#fff"/></linearGradient><linearGradient id="W" x1="815.87" x2="840.87" y1="734.68" y2="691.38" gradientUnits="userSpaceOnUse"><stop offset="0" stop-color="#dae0f5"/><stop offset="1" stop-color="#e8ecf7"/></linearGradient><linearGradient id="X" x1="780.89" x2="805.67" y1="608.32" y2="713.4" gradientUnits="userSpaceOnUse"><stop offset=".35" stop-color="#fdfdfe"/><stop offset=".54" stop-color="#bbc0e6"/></linearGradient><linearGradient id="Y" x1="705.74" x2="754.26" y1="750.5" y2="750.5" gradientUnits="userSpaceOnUse"><stop offset=".43" stop-color="#c4cae9"/><stop offset=".58" stop-color="#d7dbf0"/><stop offset=".85" stop-color="#f4f5fb"/><stop offset="1" stop-color="#fff"/></linearGradient><linearGradient id="Z" x1="694.34" x2="746.07" y1="755.23" y2="755.23" gradientUnits="userSpaceOnUse"><stop offset="0" stop-color="#d8def0"/><stop offset=".58" stop-color="#c4c9e9"/><stop offset="1" stop-color="#bbc0e6"/></linearGradient><linearGradient id="aa" x1="720.2" x2="746.04" y1="745.35" y2="745.35" gradientUnits="userSpaceOnUse"><stop offset="0" stop-color="#dae0f5"/><stop offset=".32" stop-color="#e0e5f7"/><stop offset=".76" stop-color="#f2f4fb"/><stop offset="1" stop-color="#fff"/></linearGradient><linearGradient id="ab" x1="708.31" x2="732.12" y1="734.88" y2="734.88" xlink:href="#g"/><linearGradient id="ad" x1="657.21" x2="758.35" y1="789.22" y2="789.22" gradientUnits="userSpaceOnUse"><stop offset="0" stop-color="#dae0f5"/><stop offset=".19" stop-color="#e6eaf8"/><stop offset=".57" stop-color="#f8f9fd"/><stop offset=".85" stop-color="#fff"/></linearGradient><linearGradient id="ae" x1="590.14" x2="695.45" y1="787.95" y2="787.95" gradientUnits="userSpaceOnUse"><stop offset=".52" stop-color="#dae0f5"/><stop offset=".71" stop-color="#c4cae9"/></linearGradient><linearGradient id="af" x1="974.71" x2="1077.85" y1="1138.16" y2="1138.16" xlink:href="#a"/><linearGradient id="ag" x1="914.83" x2="1034.58" y1="1113.26" y2="1113.26" xlink:href="#b"/><linearGradient id="ah" x1="974.71" x2="1005.75" y1="1050.66" y2="1050.66" xlink:href="#a"/><linearGradient id="ai" x1="959.18" x2="990.23" y1="1049.31" y2="1049.31" xlink:href="#b"/><linearGradient id="h" x1="366.22" x2="414.75" y1="1037.89" y2="1037.89" gradientUnits="userSpaceOnUse"><stop offset="0" stop-color="#c4cae9"/><stop offset=".09" stop-color="#ced3ed"/><stop offset=".41" stop-color="#e9ebf7"/><stop offset=".69" stop-color="#f9fafd"/><stop offset=".9" stop-color="#fff"/></linearGradient><linearGradient id="aj" x1="415.72" x2="460.16" y1="1030.01" y2="1030.01" xlink:href="#h"/><linearGradient id="ak" x1="1956.76" x2="1970.06" y1="902.37" y2="902.18" gradientTransform="matrix(-1 0 0 1 2319.37 0)" gradientUnits="userSpaceOnUse"><stop offset="0" stop-color="#e57139"/><stop offset=".32" stop-color="#ef894d"/><stop offset=".75" stop-color="#fba564"/><stop offset="1" stop-color="#ffaf6d"/></linearGradient><linearGradient id="i" x1="2596.31" x2="2622.44" y1="1034.79" y2="1034.79" gradientTransform="matrix(-1 0 0 1 2980.88 0)" gradientUnits="userSpaceOnUse"><stop offset="0" stop-color="#423eaf"/><stop offset=".11" stop-color="#3e39a7"/><stop offset=".7" stop-color="#28227e"/><stop offset="1" stop-color="#20196f"/></linearGradient><linearGradient id="al" x1="2546.88" x2="2573.01" y1="1026.92" y2="1026.92" xlink:href="#i"/><linearGradient id="am" x1="360.67" x2="423.42" y1="977.83" y2="977.83" gradientUnits="userSpaceOnUse"><stop offset="0" stop-color="#423eaf"/><stop offset=".56" stop-color="#2d2888"/><stop offset="1" stop-color="#20196f"/></linearGradient><linearGradient id="an" x1="2573.62" x2="2620.54" y1="910.56" y2="910.56" gradientTransform="matrix(-1 0 0 1 2980.88 0)" gradientUnits="userSpaceOnUse"><stop offset="0" stop-color="#c85a2b"/><stop offset=".02" stop-color="#ca5c2d"/><stop offset=".46" stop-color="#e68950"/><stop offset=".8" stop-color="#f8a565"/><stop offset="1" stop-color="#ffaf6d"/></linearGradient><linearGradient id="ao" x1="1893.21" x2="1943.86" y1="911.76" y2="911.76" gradientTransform="matrix(-1 0 0 1 2319.37 0)" gradientUnits="userSpaceOnUse"><stop offset="0" stop-color="#e57139"/><stop offset=".29" stop-color="#eb7f45"/><stop offset=".84" stop-color="#faa363"/><stop offset="1" stop-color="#ffaf6d"/></linearGradient><radialGradient id="g" cx="1197.16" cy="485.92" r="30.92" gradientUnits="userSpaceOnUse"><stop offset="0" stop-color="#807dfb"/><stop offset="1" stop-color="#362e94"/></radialGradient><radialGradient id="y" cx="172.7" cy="656.3" r="38.09" xlink:href="#g"/><radialGradient id="ac" cx="714.86" cy="710.06" r="16.44" gradientUnits="userSpaceOnUse"><stop offset="0" stop-color="#f6f6fb"/><stop offset="1" stop-color="#a5abcc"/></radialGradient><clipPath id="p"><path fill="none" d="M1134.09 539.09c-4.62 2.66-4.62 7 0 9.7l64.74 37.32c4.62 2.66 12.18 2.66 16.8 0l64.73-37.32c4.62-2.67 4.62-7 0-9.7l-64.73-37.32c-4.62-2.67-12.18-2.67-16.8 0Z"/></clipPath><clipPath id="D"><path fill="none" d="M767.3 507.28h62.22v128.48H767.3z"/></clipPath><clipPath id="U"><path fill="none" d="M695.45 573.78h134.07v177.56H695.45z"/></clipPath></defs><g data-name="Layer 5"><path style="mix-blend-mode:multiply" fill="url(#j)" d="m1228.49 677.18-298.89.43-63.17-36.47H670.86L419.93 786.02v112.91l250.93 144.88h195.57l74.24-42.86h287.82V677.18z"/><path d="m1411.16 727.7-162.37-93.61a34.53 34.53 0 0 0-7.68-3.19L1388 715.56c5.8 3.35 8.69 7.76 8.69 12.17v12.06c0 4.41-2.89 8.83-8.69 12.17L1228.3 844c-5.27 3-12.09 4.69-19 5l-.1.06h18.7c8.46.4 17.17-1.24 23.61-4.95L1411.16 752c11.59-6.66 11.59-17.61 0-24.3Z" style="mix-blend-mode:multiply" fill="url(#k)"/><path fill="#6b67e9" d="M1023.78 714c-11.59 6.69-11.59 17.65 0 24.34L1186.15 832c11.59 6.7 30.56 6.7 42.15 0l162.37-93.6c11.6-6.69 11.6-17.65 0-24.34l-162.37-93.6c-11.59-6.7-30.56-6.7-42.15 0Z"/><path fill="url(#l)" d="M1399.37 726.18c0 4.41-2.9 8.82-8.7 12.17L1228.3 832c-11.59 6.7-30.56 6.7-42.15 0l-162.37-93.6c-5.78-3.34-8.67-7.73-8.69-12.13v12.06c0 4.4 2.91 8.79 8.69 12.13L1186.15 844c11.59 6.69 30.56 6.69 42.15 0l162.37-93.61c5.8-3.35 8.7-7.76 8.7-12.17v-12.04Z"/><path d="M1192.15 668.09h-88.71L1023.78 714c-11.59 6.69-11.59 17.65 0 24.34L1186.15 832a32.94 32.94 0 0 0 6 2.65Z" style="mix-blend-mode:multiply" fill="url(#m)"/><path style="mix-blend-mode:multiply" fill="url(#a)" d="M1207.23 668.09h129.87v107.28h-129.87z"/><path fill="url(#b)" d="M1122 674.44v51.74c0 2.29 1.5 4.59 4.52 6.33l69.72 40.25c6 3.48 15.89 3.48 21.91 0l69.73-40.25c3-1.74 4.52-4 4.52-6.33v-51.74Z"/><path fill="url(#n)" d="M1248.3 618.74c9.53 10.21 6.84 23.21-8.09 31.83-18.21 10.51-47.75 10.51-66 0-14.51-8.38-17.45-20.9-8.85-31a3 3 0 0 1 .77-.87c-16.06 9.61-44.13 33.76-44.13 55.7 0 2.29 1.5 4.58 4.52 6.32l69.75 40.28c6 3.48 15.89 3.48 21.91 0l69.73-40.26c3-1.74 4.52-4 4.52-6.32 0-21.92-28.07-46.07-44.13-55.68Z"/><ellipse cx="1207.23" cy="631.52" fill="#807dfb" rx="46.65" ry="26.93"/><path d="M1207.23 634.56h46.34a15.89 15.89 0 0 0-.1-6.55h-46.24Z" style="mix-blend-mode:multiply" fill="url(#o)"/><path fill="#423eaf" d="m1207.23 634.56 5.26-3.04v-63.46l-5.26 3.04v63.46z"/><path fill="#5652cc" d="m1207.23 634.56-5.27-3.04v-63.46l5.27 3.04v63.46z"/><path fill="#807dfb" d="M1124.86 538.47c-5.21 3-5.21 7.93 0 10.93l72.9 42c5.21 3 13.73 3 18.93 0l72.91-42c5.2-3 5.2-7.92 0-10.93l-72.91-42c-5.2-3-13.72-3-18.93 0Z"/><path d="M1124.86 538.47c-5.21 3-5.21 7.93 0 10.93l72.9 42c5.21 3 13.73 3 18.93 0l72.91-42c5.2-3 5.2-7.92 0-10.93l-72.91-42c-5.2-3-13.72-3-18.93 0Z" style="mix-blend-mode:screen" fill="url(#c)"/><path style="mix-blend-mode:multiply" fill="url(#q)" d="M1207.23 573.78H1237l11.36-6.54h-41.13v6.54z"/><path fill="#423eaf" d="m1207.23 573.78 5.26-3.03v-63.47l-5.26 3.04v63.46z"/><path fill="#5652cc" d="m1207.23 573.78-5.26-3.03v-63.47l5.26 3.04v63.46z"/><path fill="url(#g)" d="M1188.24 493.19a19 19 0 1 1 19 19 19 19 0 0 1-19-19Z"/><path fill="url(#r)" d="M1293.5 543.94c0 2-1.3 4-3.9 5.46l-72.91 42c-5.2 3-13.72 3-18.93 0l-72.9-42c-2.61-1.5-3.91-3.48-3.91-5.46 0 23.92 4.63 34.55 17.4 41.83l61 35.15c4.36 2.51 11.48 2.51 15.83 0l61-35.15c12.77-7.28 17.4-17.91 17.4-41.83Z"/><path fill="#6b67e9" d="M363.46 864.98V752.07L614.4 607.2h195.57l250.93 144.87.01 112.92-250.94 144.88-195.57-.01-250.94-144.88z"/><path fill="#5652cc" d="m363.46 898.93 250.94 144.88v-33.95L363.46 864.98v33.95z"/><path fill="#423eaf" d="M614.4 1009.86h195.57v33.95H614.4z"/><path fill="#362e94" d="m809.97 1043.81 250.94-144.88v-33.94l-250.94 144.88v33.94z"/><path style="mix-blend-mode:multiply" fill="url(#s)" d="M778.75 967h105.46l176.7-102.01-.01-112.92-75.37-43.51v138.4L778.75 967z"/><path fill="#6b67e9" d="m438.84 303.62-.01-76.87 206.79-119.38h133.13l206.78 119.39v76.86L778.75 423H645.62L438.84 303.62z"/><path fill="#362e94" d="M985.53 846.96V303.62L778.75 423v543.35l206.78-119.39z"/><path fill="#423eaf" d="M645.62 423h133.13v543.34H645.62z"/><path fill="#5652cc" d="M645.62 966.35V423L438.84 303.62v543.34l206.78 119.39z"/><path fill="#807dfb" d="M485.84 200.64v-63.65l171.23-98.85H767.3l171.22 98.85v63.65L767.3 299.49H657.07l-171.23-98.85z"/><path fill="#362e94" d="M938.52 297.01v-96.37L767.3 299.49v96.37l171.22-98.85z"/><path fill="#423eaf" d="M657.07 299.49H767.3v96.37H657.07z"/><path fill="#5652cc" d="M657.07 395.86v-96.37l-171.23-98.85v96.37l171.23 98.85z"/><path fill="#423eaf" d="M883.41 168.81 712.18 69.96l-171.22 98.85 171.22 98.86 171.23-98.86z"/><path fill="#6b67e9" d="m739 168.81-26.82-15.47-26.81 15.47 26.81 15.48L739 168.81z"/><path fill="#423eaf" d="M739 168.81v19.4l-26.82 15.48v-19.4L739 168.81zM792 168.81v18.23l-79.82 46.08V214.9L792 168.81zM843.48 168.81v23.05l-131.3 75.81v-23.05l131.3-75.81z"/><path fill="#5652cc" d="M712.18 244.62v23.05l-131.3-75.81v-23.05l131.3 75.81zM712.18 214.9v18.22l-79.81-46.08v-18.23l79.81 46.09zM712.18 184.29v19.4l-26.81-15.48v-19.4l26.81 15.48z"/><path fill="#6b67e9" d="m712.18 244.62 131.3-75.81L712.18 93l-131.3 75.8Zm0-11.5L600.8 168.81l111.38-64.3 111.38 64.3Z"/><path fill="#6b67e9" d="M712.18 214.89 792 168.81l-79.82-46.08-79.81 46.08Zm0-11.2-60.4-34.88 60.4-34.87 60.4 34.87Z"/><path fill="#5652cc" d="M739 188.21v-19.4l-26.82-15.47v-19.4l60.41 34.87-33.59 19.4z"/><path fill="#423eaf" d="M685.37 188.21v-19.4l26.81-15.47v-19.4l-60.4 34.88 33.59 19.39z"/><path fill="#5652cc" d="M792 187.04v-18.23l-79.82-46.08v-18.22l111.38 64.3L792 187.04z"/><path fill="#423eaf" d="M632.37 187.04v-18.22l79.81-46.09v-18.22L600.8 168.82l31.57 18.22z"/><path fill="#5652cc" d="M843.48 191.86v-23.05l-131.3-75.8V69.96l171.23 98.85-39.93 23.05z"/><path fill="#423eaf" d="M580.88 191.87v-23.05l131.3-75.81V69.96l-171.22 98.86 39.92 23.05z"/><path d="m767.3 395.86 57.35.64 160.88-92.88v-76.86l-47.01-26.12v96.37L767.3 395.86z" style="mix-blend-mode:multiply" fill="#dae0f5"/><path d="m712.18 69.96 19.96 34.57-19.96-11.52V69.96zM712.18 104.51l15.79 27.34-15.79-9.12v-18.22zM712.18 133.94l16.8 29.09-16.8-9.69v-19.4z" style="mix-blend-mode:multiply" fill="#d1d7f3"/><path fill="#6b67e9" d="m569.29 88.81 55.12 31.83 4.32-2.5-55.11-31.82-4.33 2.49z"/><path fill="#362e94" d="M624.41 120.64v23.05l4.32-2.5v-23.05l-4.32 2.5z"/><path fill="#6b67e9" d="m795.63 219.49 55.12 31.82 4.32-2.49-55.11-31.83-4.33 2.5z"/><path fill="#20196f" d="M850.75 251.31v96.38l4.32-2.5v-96.37l-4.32 2.49z"/><path fill="#5652cc" d="m862.38 362.42-18.57-10.73v-22.75l9.28 5.36 9.29 16.08v12.04z"/><path fill="#362e94" d="m880.59 351.9-18.21 10.52v-12.04l18.21-10.52v12.04z"/><path fill="#423eaf" d="M856.32 327.8h21.03v18.57h-21.03z" transform="rotate(-30 866.837 337.088)"/><path fill="#6b67e9" d="m871.3 323.78-18.21 10.52-9.28-5.36 18.2-10.52 9.29 5.36z"/><path fill="#362e94" d="m561.99 362.42 18.57-10.73v-22.75l-9.28 5.36-9.29 16.08v12.04z"/><path fill="#423eaf" d="m543.78 351.9 18.21 10.52v-12.04l-18.21-10.52v12.04z"/><path fill="#5652cc" d="M548.24 326.57h18.57v21.03h-18.57z" transform="rotate(-60 557.523 337.082)"/><path fill="#6b67e9" d="m553.07 323.78 18.21 10.52 9.28-5.36-18.21-10.52-9.28 5.36z"/><path d="M561.99 362.42h37.14l-18.57-33.48v22.75l-18.57 10.73z" style="mix-blend-mode:multiply" fill="#dae0f5"/><path fill="#6161e2" d="m448.1 1065.38-121.99-70.43 155.12-151.3 121.99 70.43-155.12 151.3z"/><path fill="#362e94" d="m448.1 1065.38 155.12-151.3v27.79l-53.29 30.77v33.95l-101.83 58.79z"/><path d="m399.27 1006.31 18.54-5.41-2.22 14.83-16.32-9.42zM419.93 985.65l18.53-5.41-2.21 14.84-16.32-9.43zM440.58 965l18.54-5.41-2.22 14.83-16.32-9.42zM461.24 944.34l18.54-5.41-2.22 14.83-16.32-9.42zM481.89 923.68l18.54-5.41-2.21 14.84-16.33-9.43zM502.55 903.02l18.54-5.4-2.22 14.83-16.32-9.43z" style="mix-blend-mode:screen" fill="#e57139"/><path fill="#d1d7f3" d="M645.62 622.93V475.57L460.16 368.5V730l185.46-107.07z"/><path fill="#e8ecf7" d="M778.75 622.93V475.57L964.21 368.5V730L778.75 622.93z"/><path fill="#dae0f5" d="M645.62 475.57h133.13v147.35H645.62z"/><path fill="#362e94" d="m466.68 827.72-6.52 3.77V368.5l6.52 3.76v455.46z"/><path fill="#5652cc" d="m957.69 827.72 6.52 3.77V368.5l-6.52 3.76v455.46z"/><path fill="#f6f6fb" d="m466.68 726.24 178.94-103.31h133.13l178.94 103.31v101.48L778.75 931.03H645.62L466.68 827.72V726.24z"/><path fill="#807dfb" d="m460.16 831.49 6.52-3.77 178.94 103.31h133.13l178.94-103.31 6.52 3.77-185.46 107.07H645.62L460.16 831.49z"/><path fill="#6b67e9" d="M875.62 875.1h13.04l75.55-43.61-6.52-3.77-82.07 47.38z"/><path style="mix-blend-mode:multiply" fill="url(#d)" d="M645.62 682.61H542.24l-75.56 43.63v101.48l6.52 3.77h172.42V682.61z"/><path d="M460.16 831.49h13.04l-6.52-3.77-6.52 3.77z" style="mix-blend-mode:multiply" fill="#d1d7f3"/><path style="mix-blend-mode:multiply" fill="url(#t)" d="M185.1 848.09h180.79v132.15H185.1z"/><path fill="url(#u)" d="M80.14 855.91v63.74c0 2.82 1.86 5.65 5.57 7.79L171.6 977c7.42 4.28 19.57 4.28 27 0l85.89-49.59c3.71-2.14 5.57-5 5.57-7.79v-63.71Z"/><path fill="#6b67e9" d="M85.71 863.7c-3.71-2.14-5.57-5-5.57-7.79s1.86-5.65 5.57-7.8l85.89-49.58c7.42-4.29 19.57-4.29 27 0l85.89 49.58c3.71 2.15 5.57 5 5.57 7.8s-1.86 5.65-5.57 7.79l-85.89 49.59c-7.42 4.28-19.57 4.28-27 0Z"/><path d="M85.71 863.7c-3.71-2.14-5.57-5-5.57-7.79s1.86-5.65 5.57-7.8l85.89-49.58c7.42-4.29 19.57-4.29 27 0l85.89 49.58c3.71 2.15 5.57 5 5.57 7.8s-1.86 5.65-5.57 7.79l-85.89 49.59c-7.42 4.28-19.57 4.28-27 0Z" style="mix-blend-mode:screen" fill="url(#v)"/><path fill="url(#w)" d="M80.14 760.78v86.55c0 2.82 1.86 5.65 5.57 7.79l85.89 49.59c7.42 4.28 19.57 4.28 27 0l85.89-49.59c3.71-2.14 5.57-5 5.57-7.79v-86.55Z"/><path fill="#807dfb" d="M85.71 768.58c-3.71-2.14-5.57-5-5.57-7.8s1.86-5.65 5.57-7.78l85.89-49.58c7.42-4.29 19.57-4.29 27 0L284.48 753c3.71 2.14 5.57 5 5.57 7.79s-1.86 5.66-5.57 7.8l-85.89 49.58c-7.42 4.29-19.57 4.29-27 0Z"/><path fill="#6b67e9" d="M106.16 767c-3-1.71-4.43-4-4.43-6.2s1.48-4.48 4.43-6.19l68.21-39.38c5.9-3.41 15.55-3.41 21.45 0L264 754.59c3 1.71 4.43 3.95 4.43 6.19S267 765.27 264 767l-68.21 39.38c-5.9 3.4-15.55 3.4-21.45 0Z"/><path style="mix-blend-mode:multiply" fill="url(#x)" d="M185.1 756.46h74.21v8.07H185.1z"/><path fill="#423eaf" d="m185.1 764.53 6.48-3.75v-78.17l-6.48 3.74v78.18z"/><path fill="#5652cc" d="m185.1 764.53-6.49-3.75v-78.17l6.49 3.74v78.18z"/><path fill="url(#y)" d="M161.7 665.25a23.4 23.4 0 1 1 23.4 23.4 23.4 23.4 0 0 1-23.4-23.4Z"/><path fill="#e8ecf7" d="m588.32 709.23-46.09-26.61V415.88l46.09 26.61v266.74z"/><path fill="#d1d7f3" d="m588.32 709.23 76.28-44.03V475.57h-18.98l-57.3-33.08v266.74z"/><path fill="#fff" d="M516.78 780.59v-54.95l147.82-85.35h95.17l147.82 85.35v54.95l-147.82 85.34H664.6l-147.82-85.34z"/><path style="mix-blend-mode:multiply" fill="url(#z)" d="m630.4 660.04-113.62 65.6v54.95l33.4 19.28h80.22V660.04z"/><path fill="#e8ecf7" d="m516.78 803.41 147.82 85.35v-22.83l-147.82-85.34v22.82z"/><path fill="#dae0f5" d="M664.6 865.93h95.17v22.83H664.6z"/><path fill="#d1d7f3" d="m759.77 888.76 147.82-85.34v-22.83l-147.82 85.34v22.83z"/><path fill="#e8ecf7" d="m875.62 875.1-46.1-26.61V446.26l46.1-26.61V875.1z"/><path fill="#d1d7f3" d="m875.62 875.1 82.07-47.38V372.26l-82.07 47.39V875.1z"/><path fill="#dae0f5" d="M664.6 475.57h95.17v164.72H664.6z"/><path fill="#e8ecf7" d="m829.52 446.26-50.77 29.31h-18.98v164.72l69.75 40.28V446.26z"/><path style="mix-blend-mode:multiply" fill="url(#A)" d="m759.77 888.76 69.75-40.27 19.77 11.41-49.98 28.86h-39.54z"/><path d="m849.29 859.9-19.77-33.95v22.54l19.77 11.41z" style="mix-blend-mode:multiply" fill="#f6f6fb"/><path style="mix-blend-mode:multiply" fill="url(#B)" d="m550.18 799.87 15.09 31.54-48.49-28v-22.82l33.4 19.28z"/><path style="mix-blend-mode:multiply" fill="url(#C)" d="M588.79 684.06h170.98v-43.77H664.6l-75.81 43.77z"/><path fill="#a5abcc" d="m564.58 503.58-3.6-2.08v4.16l3.6-2.08z"/><path fill="#ced3f8" d="m560.98 505.66 3.6 2.07v-4.15l-3.6 2.08z"/><path fill="#a5abcc" d="m564.58 520.12-3.6-2.07v4.15l3.6-2.08z"/><path fill="#ced3f8" d="m560.98 522.2 3.6 2.08v-4.16l-3.6 2.08z"/><path fill="#a5abcc" d="m564.58 595.16-3.6-2.08v4.16l3.6-2.08z"/><path fill="#ced3f8" d="m560.98 597.24 3.6 2.08v-4.16l-3.6 2.08z"/><path fill="#a5abcc" d="m564.58 601.16-3.6-2.07v4.15l3.6-2.08z"/><path fill="#ced3f8" d="m560.98 603.24 3.6 2.08v-4.16l-3.6 2.08z"/><path fill="#a5abcc" d="m564.58 607.16-3.6-2.07v4.15l3.6-2.08z"/><path fill="#ced3f8" d="m560.98 609.24 3.6 2.08v-4.16l-3.6 2.08z"/><path fill="#a5abcc" d="m564.58 613.17-3.6-2.08v4.15l3.6-2.07z"/><path fill="#ced3f8" d="m560.98 615.24 3.6 2.08v-4.15l-3.6 2.07z"/><path fill="#a5abcc" d="m564.58 624.04-3.6-2.07v4.15l3.6-2.08z"/><path fill="#ced3f8" d="m560.98 626.12 3.6 2.08v-4.16l-3.6 2.08z"/><g clip-path="url(#D)"><path d="M857 568.87a10.5 10.5 0 0 0-4.74-8.21l-71.53-41.3c-2.61-1.51-4.74-.28-4.74 2.73v62.27a10.5 10.5 0 0 0 4.74 8.21l71.53 41.3c2.61 1.51 4.74.27 4.74-2.74Z" style="mix-blend-mode:multiply" fill="#f6f6fb"/><g style="mix-blend-mode:multiply"><path fill="none" stroke="#ffaf6d" stroke-miterlimit="10" stroke-width=".71" d="M852.57 570.12a10.5 10.5 0 0 0-4.74-8.21l-71.53-41.3c-2.61-1.51-4.74-.28-4.74 2.74v62.26a10.5 10.5 0 0 0 4.74 8.21l71.53 41.3c2.61 1.51 4.74.28 4.74-2.74Z"/><path fill="none" stroke="#ffaf6d" stroke-miterlimit="10" stroke-width=".71" d="m847.83 635.12-71.53-41.3a10.5 10.5 0 0 1-4.74-8.21v-57.45c6.4 3.7 3.64 20.26 8.51 23.07 3.42 2 4.21-7 9.22-4.08 5.27 3.05 7.37 28.06 13.3 31.48 4.74 2.74 5.4-5.1 10.12-2.38 6.32 3.65 6.21 20.81 12.4 24.39 6.45 3.72 11.46-20.6 17.53-17.09 3.41 2 7.36 14.59 9.93 21.51v27.32c0 3.02-2.13 4.25-4.74 2.74Z"/><path fill="#e57139" d="M814.93 577.53a4.93 4.93 0 0 0-2.22-3.84c-1.23-.71-2.22-.13-2.22 1.28a4.87 4.87 0 0 0 2.22 3.84c1.22.71 2.22.19 2.22-1.28ZM843.79 584.83a4.87 4.87 0 0 0-2.22-3.84c-1.22-.71-2.22-.14-2.22 1.28a4.93 4.93 0 0 0 2.22 3.84c1.23.71 2.22.13 2.22-1.28ZM790.2 547.91a4.92 4.92 0 0 0-2.21-3.84c-1.23-.7-2.22-.13-2.22 1.28a4.9 4.9 0 0 0 2.23 3.85c1.21.7 2.2.13 2.2-1.29Z"/><path fill="#ffaf6d" d="m776.07 580.52 8.89 5.13v-3.44l-8.89-5.14v3.45zM776.07 584.76l8.06 4.65v-2.2l-8.06-4.65v2.2z"/></g></g><path d="M672.57 516.54h3.58v3.58h-3.58z" style="mix-blend-mode:multiply" fill="#e8ecf7"/><path d="M682.02 516.54h3.58v3.58h-3.58z" style="mix-blend-mode:multiply" fill="#ffc16b"/><path d="M691.48 516.54h3.58v3.58h-3.58zM700.94 516.54h3.58v3.58h-3.58zM710.39 516.54h3.58v3.58h-3.58zM719.85 516.54h3.58v3.58h-3.58zM729.31 516.54h3.58v3.58h-3.58zM738.76 516.54h3.58v3.58h-3.58zM748.22 516.54h3.58v3.58h-3.58zM672.57 525.15h3.58v3.58h-3.58zM682.02 525.15h3.58v3.58h-3.58zM691.48 525.15h3.58v3.58h-3.58zM700.94 525.15h3.58v3.58h-3.58zM710.39 525.15h3.58v3.58h-3.58zM719.85 525.15h3.58v3.58h-3.58zM729.31 525.15h3.58v3.58h-3.58zM738.76 525.15h3.58v3.58h-3.58z" style="mix-blend-mode:multiply" fill="#e8ecf7"/><path d="M748.22 525.15h3.58v3.58h-3.58z" style="mix-blend-mode:multiply" fill="#ffc16b"/><path d="M672.57 533.76h3.58v3.58h-3.58zM682.02 533.76h3.58v3.58h-3.58zM691.48 533.76h3.58v3.58h-3.58zM700.94 533.76h3.58v3.58h-3.58zM710.39 533.76h3.58v3.58h-3.58zM719.85 533.76h3.58v3.58h-3.58zM729.31 533.76h3.58v3.58h-3.58zM738.76 533.76h3.58v3.58h-3.58zM748.22 533.76h3.58v3.58h-3.58zM672.57 542.37h3.58v3.58h-3.58zM682.02 542.37h3.58v3.58h-3.58zM691.48 542.37h3.58v3.58h-3.58zM700.94 542.37h3.58v3.58h-3.58zM710.39 542.37h3.58v3.58h-3.58zM719.85 542.37h3.58v3.58h-3.58z" style="mix-blend-mode:multiply" fill="#e8ecf7"/><path d="M729.31 542.37h3.58v3.58h-3.58z" style="mix-blend-mode:multiply" fill="#ffc16b"/><path d="M738.76 542.37h3.58v3.58h-3.58zM748.22 542.37h3.58v3.58h-3.58zM672.57 550.98h3.58v3.58h-3.58zM682.02 550.98h3.58v3.58h-3.58zM691.48 550.98h3.58v3.58h-3.58z" style="mix-blend-mode:multiply" fill="#e8ecf7"/><path d="M700.94 550.98h3.58v3.58h-3.58z" style="mix-blend-mode:multiply" fill="#ffc16b"/><path d="M710.39 550.98h3.58v3.58h-3.58zM719.85 550.98h3.58v3.58h-3.58zM729.31 550.98h3.58v3.58h-3.58zM738.76 550.98h3.58v3.58h-3.58zM748.22 550.98h3.58v3.58h-3.58z" style="mix-blend-mode:multiply" fill="#e8ecf7"/><path d="M672.57 559.59h3.58v3.58h-3.58z" style="mix-blend-mode:multiply" fill="#ffc16b"/><path d="M682.02 559.59h3.58v3.58h-3.58zM691.48 559.59h3.58v3.58h-3.58zM700.94 559.59h3.58v3.58h-3.58zM710.39 559.59h3.58v3.58h-3.58zM719.85 559.59h3.58v3.58h-3.58zM729.31 559.59h3.58v3.58h-3.58zM738.76 559.59h3.58v3.58h-3.58zM748.22 559.59h3.58v3.58h-3.58zM672.57 568.2h3.58v3.58h-3.58zM682.02 568.2h3.58v3.58h-3.58zM691.48 568.2h3.58v3.58h-3.58zM700.94 568.2h3.58v3.58h-3.58zM710.39 568.2h3.58v3.58h-3.58zM719.85 568.2h3.58v3.58h-3.58zM729.31 568.2h3.58v3.58h-3.58zM738.76 568.2h3.58v3.58h-3.58zM748.22 568.2h3.58v3.58h-3.58zM672.57 576.81h3.58v3.58h-3.58zM682.02 576.81h3.58v3.58h-3.58zM691.48 576.81h3.58v3.58h-3.58zM700.94 576.81h3.58v3.58h-3.58zM710.39 576.81h3.58v3.58h-3.58zM719.85 576.81h3.58v3.58h-3.58zM729.31 576.81h3.58v3.58h-3.58z" style="mix-blend-mode:multiply" fill="#e8ecf7"/><path d="M738.76 576.81h3.58v3.58h-3.58z" style="mix-blend-mode:multiply" fill="#ffc16b"/><path d="M748.22 576.81h3.58v3.58h-3.58z" style="mix-blend-mode:multiply" fill="#e8ecf7"/><path style="mix-blend-mode:multiply" fill="url(#e)" d="m550.18 631.31 7.38 12.05-4.67 2.78-7.3-12.18 4.59-2.65z"/><path style="mix-blend-mode:multiply" fill="url(#E)" d="m550.18 625.05 7.38 12.05-4.67 2.78-7.3-12.18 4.59-2.65z"/><path style="mix-blend-mode:multiply" fill="url(#F)" d="m550.18 618.79 7.38 12.05-4.67 2.78-7.3-12.18 4.59-2.65z"/><path style="mix-blend-mode:multiply" fill="url(#G)" d="m550.18 612.53 7.38 12.05-4.67 2.78-7.3-12.18 4.59-2.65z"/><path style="mix-blend-mode:multiply" fill="url(#H)" d="m550.18 606.27 7.38 12.05-4.67 2.78-7.3-12.19 4.59-2.64z"/><path style="mix-blend-mode:multiply" fill="url(#I)" d="m550.18 600.01 7.38 12.05-4.67 2.78-7.3-12.19 4.59-2.64z"/><path style="mix-blend-mode:multiply" fill="url(#J)" d="m550.18 593.75 7.38 12.05-4.67 2.78-7.3-12.19 4.59-2.64z"/><path style="mix-blend-mode:multiply" fill="url(#K)" d="m550.18 587.49 7.38 12.05-4.67 2.78-7.3-12.19 4.59-2.64z"/><path fill="#bbc0e6" d="m550.18 635.5-83.5 48.21v-4.2l83.5-48.2v4.19z"/><path fill="#dae0f5" d="m550.18 631.31-83.5 48.2v-4.14l79.91-46.13 3.59 2.07z"/><path fill="#bbc0e6" d="m550.18 629.24-83.5 48.2v-4.19l83.5-48.2v4.19z"/><path fill="#dae0f5" d="m550.18 625.05-83.5 48.2v-4.14l79.91-46.13 3.59 2.07z"/><path fill="#bbc0e6" d="m550.18 622.98-83.5 48.2v-4.19l83.5-48.2v4.19z"/><path fill="#dae0f5" d="m550.18 618.79-83.5 48.2v-4.14l79.91-46.13 3.59 2.07z"/><path fill="#a5abcc" d="m550.18 616.72-83.5 48.2v-4.19l83.5-48.2v4.19z"/><path fill="#c4cae9" d="m550.18 612.53-83.5 48.2v-4.14l79.91-46.13 3.59 2.07z"/><path fill="#a5abcc" d="m550.18 610.46-83.5 48.2v-4.19l83.5-48.2v4.19z"/><path fill="#c4cae9" d="m550.18 606.27-83.5 48.2v-4.14l79.91-46.13 3.59 2.07z"/><path fill="#bbc0e6" d="m550.18 604.2-83.5 48.2v-4.19l83.5-48.2v4.19z"/><path fill="#dae0f5" d="m550.18 600.01-83.5 48.2v-4.14l79.91-46.14 3.59 2.08z"/><path fill="#a5abcc" d="m550.18 597.93-83.5 48.21v-4.19l83.5-48.2v4.18z"/><path fill="#c4cae9" d="m550.18 593.75-83.5 48.2v-4.14l79.91-46.14 3.59 2.08z"/><path fill="#a5abcc" d="m550.18 591.67-83.5 48.21v-4.19l83.5-48.2v4.18z"/><path fill="#c4cae9" d="m550.18 587.49-83.5 48.2v-4.14l79.91-46.14 3.59 2.08z"/><path style="mix-blend-mode:multiply" fill="url(#L)" d="m550.18 495.27 7.38 12.05-4.67 2.78-7.3-12.18 4.59-2.65z"/><path fill="#a5abcc" d="m550.18 499.45-83.5 48.21v-4.19l83.5-48.2v4.18z"/><path fill="#c4cae9" d="m550.18 495.27-83.5 48.2v-4.14l79.91-46.14 3.59 2.08z"/><path style="mix-blend-mode:multiply" fill="url(#M)" d="m550.18 540.69 7.38 12.05-4.67 2.78-7.3-12.18 4.59-2.65z"/><path style="mix-blend-mode:multiply" fill="url(#N)" d="m550.18 534.43 7.38 12.05-4.67 2.78-7.3-12.18 4.59-2.65z"/><path fill="#bbc0e6" d="m550.18 544.88-83.5 48.2v-4.19l83.5-48.2v4.19z"/><path fill="#dae0f5" d="m550.18 540.69-83.5 48.2v-4.14l79.91-46.13 3.59 2.07z"/><path fill="#bbc0e6" d="m550.18 538.62-83.5 48.2v-4.19l83.5-48.2v4.19z"/><path fill="#dae0f5" d="m550.18 534.43-83.5 48.2v-4.14l79.91-46.13 3.59 2.07z"/><path fill="#20196f" d="m943.22 814.2-56.62 32.34v-5.87l56.62-32.34v5.87zM1036.21 942.1l-56.63 32.34-5.08-2.94 56.62-32.34 5.09 2.94z"/><path fill="#5652cc" d="M973.08 869v-34.09a6.16 6.16 0 0 0-3.08-5.34l-31.79-18.35v5.87l28.31 16.35A2.93 2.93 0 0 1 968 836v34.49a7 7 0 0 0 3.53 6.11l53.11 30.66a3 3 0 0 1 1.47 2.56v32.24l5.09 2.94v-36.27a6.18 6.18 0 0 0-3.08-5.34l-52.81-30.49a4.44 4.44 0 0 1-2.23-3.9Z"/><path fill="url(#f)" d="M1033.13 900.5 980.32 870a4.45 4.45 0 0 1-2.23-3.86V832a6.16 6.16 0 0 0-3.08-5.34l-31.79-18.35-5 2.89L970 829.57a6.16 6.16 0 0 1 3.08 5.34V869a4.44 4.44 0 0 0 2.23 3.86l52.81 30.49a6.18 6.18 0 0 1 3.08 5.34V945l5-2.89v-36.27a6.18 6.18 0 0 0-3.07-5.34Z"/><path fill="#5652cc" d="M964.48 874v-34.18a6.16 6.16 0 0 0-3.08-5.34l-31.79-18.35V822l28.31 16.34a3 3 0 0 1 1.48 2.56v34.49a7.05 7.05 0 0 0 3.52 6.11l53.08 30.66a3 3 0 0 1 1.47 2.56V947l5.09 2.94v-36.3a6.17 6.17 0 0 0-3.09-5.34l-52.8-30.49a4.45 4.45 0 0 1-2.19-3.81Z"/><path fill="url(#O)" d="m1024.52 905.41-52.8-30.49a4.46 4.46 0 0 1-2.23-3.86v-34.13a6.16 6.16 0 0 0-3.08-5.34l-31.79-18.35-5 2.89 31.79 18.35a6.16 6.16 0 0 1 3.08 5.34V874a4.45 4.45 0 0 0 2.23 3.86l52.8 30.49a6.17 6.17 0 0 1 3.09 5.34v36.21l5-2.9v-36.25a6.16 6.16 0 0 0-3.09-5.34Z"/><path fill="#5652cc" d="M955.88 878.86v-34.13a6.17 6.17 0 0 0-3.09-5.34L921 821v5.87l28.31 16.34a3 3 0 0 1 1.47 2.56v34.53a7.06 7.06 0 0 0 3.53 6.11l53.11 30.66a2.94 2.94 0 0 1 1.48 2.56v32.24l5.08 2.94v-36.26a6.16 6.16 0 0 0-3.08-5.34l-52.8-30.49a4.45 4.45 0 0 1-2.22-3.86Z"/><path fill="url(#P)" d="m1015.92 910.32-52.8-30.49a4.46 4.46 0 0 1-2.23-3.86v-34.13a6.16 6.16 0 0 0-3.09-5.34L926 818.15l-5 2.85 31.78 18.35a6.17 6.17 0 0 1 3.09 5.34v34.13a4.45 4.45 0 0 0 2.23 3.86l52.8 30.49a6.15 6.15 0 0 1 3.08 5.34v36.26l5-2.9v-36.21a6.15 6.15 0 0 0-3.06-5.34Z"/><path fill="#5652cc" d="M947.27 883.77v-34.13a6.16 6.16 0 0 0-3.08-5.34L912.41 826v5.87l28.3 16.34a2.94 2.94 0 0 1 1.48 2.56v34.49a7 7 0 0 0 3.53 6.11L998.83 922a3 3 0 0 1 1.47 2.56v32.24l5.09 2.93v-36.27a6.17 6.17 0 0 0-3.08-5.34l-52.81-30.49a4.46 4.46 0 0 1-2.23-3.86Z"/><path fill="url(#Q)" d="m1007.32 915.22-52.81-30.48a4.46 4.46 0 0 1-2.23-3.86v-34.13a6.15 6.15 0 0 0-3.08-5.34l-31.79-18.36-5 2.9 31.78 18.35a6.16 6.16 0 0 1 3.08 5.34v34.13a4.46 4.46 0 0 0 2.23 3.86l52.81 30.49a6.17 6.17 0 0 1 3.08 5.34v36.25l5-2.89v-36.26a6.19 6.19 0 0 0-3.07-5.34Z"/><path fill="#5652cc" d="M938.67 888.68v-34.13a6.15 6.15 0 0 0-3.08-5.34l-31.79-18.36v5.88l28.31 16.34a3 3 0 0 1 1.48 2.56v34.49a7 7 0 0 0 3.52 6.1l53.12 30.67a3 3 0 0 1 1.47 2.56v32.24l5.09 2.93v-36.25a6.19 6.19 0 0 0-3.09-5.37l-52.8-30.48a4.46 4.46 0 0 1-2.23-3.84Z"/><path fill="url(#R)" d="m998.71 920.13-52.8-30.48a4.46 4.46 0 0 1-2.23-3.86v-34.13a6.18 6.18 0 0 0-3.08-5.35L908.81 828l-5 2.89 31.79 18.36a6.15 6.15 0 0 1 3.08 5.34v34.13a4.46 4.46 0 0 0 2.23 3.86L993.7 923a6.19 6.19 0 0 1 3.09 5.35v36.25l5-2.89v-36.24a6.17 6.17 0 0 0-3.08-5.34Z"/><path fill="#5652cc" d="M930.07 893.59v-34.13a6.16 6.16 0 0 0-3.09-5.34l-31.78-18.36v5.88L923.51 858a3 3 0 0 1 1.47 2.56V895a7.06 7.06 0 0 0 3.53 6.11l53.11 30.67a2.93 2.93 0 0 1 1.48 2.55v32.27l5.08 2.93v-36.26a6.16 6.16 0 0 0-3.08-5.34l-52.8-30.48a4.46 4.46 0 0 1-2.23-3.86Z"/><path fill="url(#S)" d="m990.11 925-52.8-30.48a4.47 4.47 0 0 1-2.23-3.87v-34.09a6.17 6.17 0 0 0-3.09-5.34l-31.78-18.35-5 2.89L927 854.12a6.16 6.16 0 0 1 3.09 5.34v34.13a4.46 4.46 0 0 0 2.23 3.86l52.8 30.48a6.17 6.17 0 0 1 3.08 5.34v36.26l5-2.89v-36.26a6.16 6.16 0 0 0-3.09-5.38Z"/><path fill="#5652cc" d="M921.46 898.49v-34.13a6.17 6.17 0 0 0-3.08-5.34l-31.78-18.35v5.87l28.3 16.35a2.94 2.94 0 0 1 1.48 2.55v34.49a7 7 0 0 0 3.53 6.11L973 936.71a3 3 0 0 1 1.48 2.55v32.24l5.08 2.94v-36.26a6.16 6.16 0 0 0-3.08-5.34l-52.81-30.48a4.47 4.47 0 0 1-2.21-3.87Z"/><path fill="url(#T)" d="m981.51 930-52.81-30.54a4.44 4.44 0 0 1-2.23-3.86v-34.13a6.16 6.16 0 0 0-3.08-5.34l-31.79-18.35-5 2.89L918.38 859a6.17 6.17 0 0 1 3.08 5.34v34.16a4.46 4.46 0 0 0 2.23 3.86l52.81 30.48a6.16 6.16 0 0 1 3.08 5.34v36.26l5-2.89v-36.26a6.18 6.18 0 0 0-3.07-5.29Z"/><g clip-path="url(#U)"><path fill="#bbc0e6" d="M838.67 674.25c-21.39 12.35-38.74 42.39-38.74 67.1L838.67 719Z"/><path fill="url(#V)" d="M838.67 674.25 762 630c-21.39 12.36-38.74 42.4-38.74 67.11l76.63 44.24c.04-24.71 17.39-54.75 38.78-67.1Z"/><path fill="#bbc0e6" d="M848.24 695.64c-13.81 8-25 27.36-25 43.3l25-14.44Z"/><path fill="url(#W)" d="m848.24 695.64-9.57-5.53c-13.8 8-25 27.36-25 43.3l9.57 5.53c0-15.94 11.19-35.33 25-43.3Z"/><path fill="#f6f6fb" d="M812.16 647.6c3.74 2.07 5.43 7.59 3.77 12.31l-21.09 60.24c-1.65 4.72-6 6.87-9.77 4.8l-60.66-33.62c-3.73-2.08-5.43-7.59-3.77-12.31l21.09-60.24c1.65-4.72 6-6.88 9.77-4.8Z"/><path fill="url(#X)" d="M820.92 647.65 760.27 614a6.07 6.07 0 0 0-2.94-.79h-8.77a6 6 0 0 1 2.94.79l60.66 33.62c3.74 2.07 5.43 7.59 3.77 12.31l-21.09 60.24c-1.23 3.51-4 5.6-6.83 5.59h8.76c2.87 0 5.61-2.07 6.84-5.59L824.7 660c1.66-4.76-.04-10.28-3.78-12.35Z"/><path fill="#e8ecf7" d="m811.46 657.2 2.75-7.84a6.68 6.68 0 0 0-.81-.87l-2.87 8.2-7.08-3.93 2.92-8.37-.92-.51-2.93 8.36-7.09-3.92 2.93-8.37-.93-.51-2.93 8.36-7.09-3.93 2.93-8.36-.93-.52-2.93 8.37-7.09-3.93 2.93-8.37-.93-.51-2.93 8.36-7.09-3.91 2.93-8.36-.93-.52-2.92 8.37-7.09-3.93 2.93-8.37-.93-.51-2.93 8.32-7.09-3.93 2.93-8.36-.93-.52-2.93 8.37-7.09-3.93 2.88-8.21a6.41 6.41 0 0 0-1.05-.18l-2.76 7.87-4.58-2.53c0 .06-.06.11-.08.18l-.28.81 4.59 2.55-2.71 7.75-4.6-2.55-.35 1 4.6 2.55-2.72 7.75-4.59-2.54-.36 1 4.6 2.55-2.71 7.75-4.6-2.55-.35 1 4.59 2.55-2.71 7.75-4.6-2.55-.35 1 4.6 2.54-2.72 7.76-4.59-2.55-.35 1 4.59 2.55-2.71 7.78-4.6-2.55-.35 1 4.6 2.55-2.72 7.75-4.52-2.5a10 10 0 0 0-.25 1.05l4.42 2.46-2.17 6.21a9.2 9.2 0 0 0 .81.84l2.29-6.54 7.09 3.93-2.35 6.7.93.52 2.35-6.7 7.09 3.93-2.35 6.7.93.51 2.35-6.7 7.09 3.93-2.35 6.7.93.52 2.35-6.71 7.08 3.93-2.34 6.71.93.51 2.34-6.7 7.09 3.93-2.34 6.7.93.52 2.34-6.71 7.09 3.93-2.35 6.7.93.52 2.35-6.7 7.09 3.93-2.35 6.7.93.51 2.35-6.7 7.09 3.93-2.29 6.54a5.45 5.45 0 0 0 1 .16l2.17-6.18 4.36 2.42a8.33 8.33 0 0 0 .45-.95l-4.42-2.47 2.71-7.76 4.48 2.49.35-1-4.48-2.48 2.72-7.75 4.48 2.48.35-1-4.47-2.47 2.71-7.76 4.48 2.49.35-1-4.48-2.49 2.72-7.75 4.48 2.51.35-1-4.48-2.48 2.71-7.75 4.48 2.48.35-1-4.48-2.49 2.72-7.75 4.48 2.48.35-1-4.48-2.49 2.71-7.75 4.48 2.48.34-1Zm-16.38-7.88 7.09 3.93-2.72 7.75-7.09-3.93Zm-25.23 17.37 7.08 3.93-2.71 7.75-7.09-3.93Zm-3.65 7.24-7.09-3.93 2.72-7.75 7.09 3.93Zm4-8.24 2.71-7.75 7.09 3.93-2.71 7.75Zm-.93-.52-7.09-3.92 2.71-7.76 7.09 3.93Zm-8-4.44-7.09-3.93 2.72-7.75L764 653Zm-.35 1-2.72 7.75-7.08-3.92 2.71-7.76Zm-3.07 8.76-2.71 7.75-7.14-3.93 2.71-7.75Zm.93.51 7.09 3.93-2.71 7.75-7.09-3.93Zm8 4.45 7.09 3.93-2.72 7.75-7.08-3.93Zm8 4.44 7.09 3.93-2.72 7.75-7.09-3.93Zm.35-1 2.71-7.75 7.09 3.92-2.71 7.76Zm3.06-8.76 2.72-7.75 7.09 3.93-2.72 7.75Zm3.07-8.75 2.72-7.75 7.08 3.93-2.71 7.75Zm-.93-.51-7.09-3.93 2.72-7.76 7.09 3.93Zm-8-4.45-7.09-3.93 2.72-7.75 7.09 3.93Zm-8-4.44-7.08-3.93 2.71-7.76 7.09 3.93Zm-8-4.45-7.09-3.93 2.71-7.75 7.09 3.93Zm-.35 1-2.72 7.76-7.09-3.93 2.72-7.76Zm-3.07 8.76-2.74 7.71-7.09-3.93 2.71-7.75Zm-3.09 8.71-2.72 7.76-7.1-3.89 2.72-7.76Zm-3.07 8.76-2.75 7.79-7-3.93 2.71-7.75Zm.93.51 7.09 3.93-2.72 7.8-7.05-3.94Zm8 4.45 7.09 3.93-2.72 7.75-7.05-3.89Zm8 4.44 7.09 3.93-2.71 7.75L761 692Zm8 4.44 7.09 3.93-2.71 7.76-7.06-3.89Zm8 4.45 7.09 3.93-2.72 7.75-7.05-3.89Zm.35-1 2.72-7.75 7.08 3.92-2.64 7.78Zm3.07-8.76 2.71-7.75 7.09 3.93-2.72 7.75Zm3.06-8.75 2.72-7.75 7.08 3.93-2.71 7.75Zm3.07-8.76 2.71-7.75 7.16 3.97-2.71 7.75Zm-2.24-21 7.09 3.93-2.72 7.75-7.08-3.92Zm-8-4.44 7.09 3.93-2.71 7.75-7.09-3.93ZM771 636l7.09 3.93-2.71 7.76-7.09-3.93Zm-8-4.44 7.08 3.93-2.71 7.75-7.09-3.93Zm-8-4.44 7.09 3.92-2.72 7.76-7.09-3.93Zm-8-4.45 7.09 3.93-2.72 7.75-7.08-3.93Zm-3.06 8.76 7.08 3.92-2.71 7.76-7.09-3.93Zm-3.07 8.75 7.09 3.93-2.72 7.75-7.08-3.93Zm-3.07 8.75 7.09 3.93-2.71 7.76-7.09-3.93Zm-3.06 8.76 7.09 3.93-2.72 7.75-7.11-3.95Zm-3.07 8.75 7.09 3.93-2.76 7.73-7.09-3.92Zm1.33 20.42-7.09-3.93 2.72-7.75 7.09 3.93Zm8 4.44-7.09-3.93 2.72-7.75 7.08 3.93Zm8 4.45-7.09-3.93 2.71-7.75 7.08 3.93Zm8 4.44-7.08-3.93 2.71-7.75 7.09 3.93Zm8 4.45-7.09-3.93 2.72-7.76 7.09 3.93Zm8 4.44-7-3.93 2.72-7.75 7.09 3.93Zm8 4.45-7-3.93 2.72-7.76 7.08 3.93Zm8 4.44-7-3.97 2.71-7.75 7.09 3.93Zm3.06-8.75-7.09-3.93 2.72-7.76 7.09 3.93Zm3.07-8.76-7.09-3.93 2.71-7.75 7.09 3.93Zm3.06-8.75-7.09-3.93 2.8-7.78 7.1 4Zm3.07-8.76-7.01-3.95 2.71-7.75 7.09 3.93Zm3.06-8.75-7.08-3.93 2.71-7.75 7.09 3.92Zm3.07-8.76-7.09-3.93 2.72-7.75 7.08 3.93Z"/><path d="M788 721.63a2 2 0 0 1-1-.27l-60.6-33.62c-1.76-1-2.95-4.34-1.89-7.37l21.09-60.24c.6-1.7 1.77-2.84 2.93-2.84a2 2 0 0 1 1 .27l60.66 33.63c1.77 1 3 4.34 1.89 7.36L791 718.79c-.63 1.7-1.8 2.84-3 2.84Z" style="mix-blend-mode:multiply" fill="none" stroke="#ffaf6d" stroke-miterlimit="10" stroke-width=".71"/></g><path d="M799.93 741.35c7.52 0 25-.76 29.59-2.62v-3.42l-6.28 3.63-9.57-5.53Z" style="mix-blend-mode:multiply" fill="#e8ecf7"/><path d="m769.79 655.44 8.39 4.65-1.2-11.62-7.19 6.97zM767.7 688.24l-8.39-4.65 1.2 11.62 7.19-6.97zM779.44 684.06l3.21-9.18 6.6 8.73-9.81.45zM757.89 660.47l-3.22 9.17-6.6-8.72 9.82-.45zM771.11 665.33c2.82 1.21 4 5 2.75 8.53s-4.62 5.33-7.43 4.11-4-5-2.74-8.5 4.63-5.35 7.42-4.14Z" style="mix-blend-mode:multiply" fill="#ffaf6d"/><path d="M746.62 739.91c-5.4-3.13-12.59-4.56-19.64-4.35h-7.88v1.81a28.88 28.88 0 0 0-5.85 2.54c-10.06 5.84-10 15.33.12 21.17a29.34 29.34 0 0 0 5.73 2.49v1.89h10.08c6.38-.11 12.71-1.55 17.56-4.37 10.07-5.85 10.01-15.34-.12-21.18Z" style="mix-blend-mode:multiply" fill="url(#Y)"/><path fill="url(#Z)" d="M702 761.08c-5.09-2.94-7.64-6.8-7.63-10.66v-5.43c0 3.86 2.53 7.73 7.62 10.67 10.14 5.85 26.5 5.85 36.56 0 5-2.9 7.5-6.7 7.52-10.51v5.42c0 3.81-2.51 7.61-7.5 10.52-10.1 5.85-26.47 5.85-36.57-.01Z"/><path fill="#f6f6fb" d="M702 755.66c-10.12-5.85-10.18-15.33-.12-21.18s26.44-5.84 36.56 0 10.19 15.33.12 21.18-26.43 5.85-36.56 0Z"/><path d="M720.2 752c2 0 16-1.1 24.08-1.39a9.28 9.28 0 0 0 1.49-7.61c-5.48-.53-18.61-2.74-20.48-4.24A45.73 45.73 0 0 0 720.2 752Z" style="mix-blend-mode:multiply" fill="url(#aa)"/><path fill="url(#ab)" d="M731.25 742.51c-2.12-3.09-8.1-19.5-8.1-24.71h-5.93c0 5.21-6 21.62-8.1 24.71-1.71 2.49-.82 5.44 2.67 7.45 4.67 2.69 12.21 2.69 16.84 0 3.5-2.02 4.37-4.96 2.62-7.45Z"/><path fill="url(#ac)" d="M710.12 713.93A10.1 10.1 0 1 1 720.21 724a10.1 10.1 0 0 1-10.09-10.07Z"/><path d="m754.79 801.14-54.89-31.69c-4.74-2.74-12.45-2.68-19.72-2.47l-23-12.12v68.71h70.9a17.65 17.65 0 0 0 8.63-2.05l18-10.42c2.37-1.37 3.56-3.18 3.56-5s-1.11-3.59-3.48-4.96Z" style="mix-blend-mode:multiply" fill="url(#ad)"/><path fill="url(#ae)" d="M590.14 752.32v32.53c0 1.8 1.19 3.61 3.56 5l54.89 31.69c4.74 2.74 12.51 2.74 17.25 0l26.06-15c2.37-1.37 3.55-3.18 3.55-5V769Z"/><path fill="#fff" d="M593.7 757.3c-2.37-1.37-3.56-3.18-3.56-5s1.19-3.61 3.56-5l26-15.05c4.75-2.73 12.51-2.73 17.26 0L691.9 764c2.37 1.37 3.55 3.18 3.55 5s-1.18 3.62-3.55 5l-26.06 15c-4.74 2.74-12.51 2.74-17.25 0Z"/><path fill="#f6f6fb" d="M606.77 756.27c-1.89-1.08-2.83-2.52-2.83-3.95s.94-2.87 2.83-4l14.76-8.52a15.17 15.17 0 0 1 13.7 0l43.6 25.2c1.88 1.09 2.83 2.52 2.83 4s-.95 2.87-2.83 4l-14.76 8.52a15.19 15.19 0 0 1-13.71 0Z"/><path style="mix-blend-mode:multiply" fill="url(#af)" d="M974.71 1100.47h103.14v75.4H974.71z"/><path fill="url(#ag)" d="M914.83 1050.66v90.63c0 1.61 1.06 3.23 3.18 4.45L967 1174a17.14 17.14 0 0 0 15.41 0l49-28.29c2.11-1.22 3.17-2.84 3.17-4.45v-90.63Z"/><path fill="#807dfb" d="M918 1055.11c-2.12-1.23-3.18-2.84-3.18-4.45s1.06-3.22 3.18-4.45l49-28.29a17.14 17.14 0 0 1 15.41 0l49 28.29c2.11 1.23 3.17 2.84 3.17 4.45s-1.06 3.22-3.17 4.45l-49 28.28a17.07 17.07 0 0 1-15.41 0Z"/><path fill="#6b67e9" d="M929.67 1054.19c-1.68-1-2.52-2.25-2.52-3.53s.84-2.56 2.52-3.53l38.92-22.47a13.58 13.58 0 0 1 12.23 0l38.92 22.47c1.68 1 2.53 2.25 2.53 3.53s-.85 2.56-2.53 3.53l-38.92 22.47a13.58 13.58 0 0 1-12.23 0Z"/><path d="m1004.93 1049.51-12.71-7.34a4.12 4.12 0 0 0-2-.47h-15.51v17.92h15.52a4.12 4.12 0 0 0 2-.47l12.71-7.34a1.22 1.22 0 0 0 0-2.3Z" style="mix-blend-mode:multiply" fill="url(#ah)"/><path fill="url(#ai)" d="M959.18 1039v11.66a1.4 1.4 0 0 0 .83 1.15l12.7 7.34a4.45 4.45 0 0 0 4 0l12.7-7.34a1.4 1.4 0 0 0 .83-1.15V1039Z"/><path fill="#807dfb" d="M960 1040.15a1.22 1.22 0 0 1 0-2.31l12.7-7.33a4.45 4.45 0 0 1 4 0l12.7 7.33a1.22 1.22 0 0 1 0 2.31l-12.7 7.33a4.39 4.39 0 0 1-4 0Z"/><path style="mix-blend-mode:multiply" fill="url(#h)" d="M394.26 1031.97h-24.08l-3.96 11.84h48.53l-20.49-11.84z"/><path style="mix-blend-mode:multiply" fill="url(#aj)" d="M439.74 1024.09h-20.06l-3.96 11.83 44.44-.04-20.42-11.79z"/><path fill="#fcd1a9" d="M360.21 931.92c1.57 2.71 4.3 5.53 5 7.28a17 17 0 0 1 .84 5.08c0 .91-.69 3.57-1.83 3.12s-1.55.7-2.69.48-.72-.64-.72-.64c-.6.22-1.41.22-1.62-.24-.51.17-.74.7-1.58-.3-.69-.82-.89-2.35-1.42-3.17-1.7-2.65-1-10.44-1.33-11.23s4.25-2.3 5.35-.38Z"/><path fill="url(#ak)" d="M375.3 868.57c-22.4 14.31-25 42.52-21.14 65.58 2.64 3.84 8.3 2 7.66-1.6-2.31-26.27 1.86-50.99 13.48-63.98Z"/><path fill="url(#i)" d="M358.44 1039.79c0-10.24 6.49-10.53 6.49-10.53s3.51 0 9.22-2.37 13.56-1.44 9.13 6.75c0 .09-.09.19-.16.3a4.09 4.09 0 0 1-1.44 1.26l-14.17 8.31c-2.16 1.23-9.02-1.62-9.07-3.72Z"/><path fill="#131147" d="M358.48 1038.87c.12 2.1 6.89 4.9 9 3.67l14.17-8.31a13.12 13.12 0 0 0 2-1.45c-.13.28-.24.54-.4.86 0 .09-.09.19-.16.3a4.09 4.09 0 0 1-1.44 1.26l-14.17 8.31c-2 1.15-8.17-1.28-9-3.32a2.38 2.38 0 0 1-.06-.41 6.89 6.89 0 0 1 .06-.91Z"/><path fill="#fff" d="M361.08 1027.91a59.21 59.21 0 0 1 7.55 1.5 3.32 3.32 0 0 0 .52 1.52c.06.06.11.13.17.2 1.16.81 2.34 2.09-.41 3.81a3.84 3.84 0 0 1-5-.35 4.49 4.49 0 0 0-1.6-1.82 4 4 0 0 0-1.53-.64v-.15s-.4-4.07.3-4.07Z"/><path fill="#20196f" d="m361 927.85 28.83.52c-2.38 19.26-7.18 36.75-10.39 55.4-3.44 18.13-7.31 30.87-10.69 46-1.24 2.81-6.91 1.74-8.06-1-.9-13.89-1.93-30.82 2.19-46.85-.72-17.28-2.31-36.62-1.88-54.07Z"/><path fill="url(#al)" d="M407.87 1031.91c0-10.23 6.49-10.52 6.49-10.52s3.51 0 9.22-2.37 13.56-1.44 9.13 6.74a1.46 1.46 0 0 1-.16.3 3.92 3.92 0 0 1-1.44 1.27l-14.11 8.31c-2.21 1.23-9.07-1.64-9.13-3.73Z"/><path fill="#131147" d="M407.91 1031c.12 2.11 6.89 4.9 9 3.68l14.16-8.31a12.19 12.19 0 0 0 2-1.46c-.13.28-.24.56-.4.86a1.46 1.46 0 0 1-.16.3 3.92 3.92 0 0 1-1.44 1.27l-14.07 8.3c-2 1.15-8.17-1.27-9-3.32a1.83 1.83 0 0 1-.07-.42 6.91 6.91 0 0 1-.02-.9Z"/><path fill="#fff" d="M410.51 1020a59.56 59.56 0 0 1 7.55 1.49 3.29 3.29 0 0 0 .52 1.52c.06.07.11.14.17.2 1.16.81 2.34 2.09-.41 3.81a3.82 3.82 0 0 1-5-.35 4.53 4.53 0 0 0-1.6-1.81 4 4 0 0 0-1.53-.65.49.49 0 0 0 0-.14s-.4-4.07.3-4.07Z"/><path fill="url(#am)" d="M405.33 944.92c-6.34.93-38.32-14.06-44.66-13.13 0 29.39 23 39.57 45.92 46.12-3.28 12.1 1.3 28.4 3.52 44.15 1.58 2.48 7.34 2.6 8.1-.37 2.29-15.44 4.17-28.67 5.18-47.09.61-10.6-6.54-20.6-18.06-29.68Z"/><path fill="url(#an)" d="M374.27 950.24c13.72 7.71 28.09 7.72 33-1.75-1.83-17.64-3.55-32 0-48.9-1-9.34-1.78-10.74-.58-16.18-.43-1.83-6-5.73-10.14-9.46-4.42-4-7.41-7.88-9.68-8.35-18.78-3.83-27.9 29.63-26.33 65.3 1.46 9.49 6.96 15.55 13.73 19.34Z"/><path fill="#fcd1a9" d="M376.44 867.74c4.07-3 5.79-10.2 6.4-14.21a19.75 19.75 0 0 1 .88-7c2.66-8.52 10.38-14.19 16.88-11.66 13.11 5.1 8.53 11.4 5.87 19.92-2.46 7.89-7.73 12.2-14 11.25a6.67 6.67 0 0 0 1.83 5.74c-4.59 2.75-11.28 1.45-13.92.26-2.81-1.23-5.86-2.33-3.94-4.3Z"/><path fill="#362e94" d="M407 832c-.07-1.15-2-2.36-9.66-1.33l-2 .28c-14.38 2.52-14.83 18.3-13.84 22.76a8.22 8.22 0 0 1-.1 5c5.17 1 6.1 4.29 10.07 2.2 2.84-1.49 6.94-3.06 7.77-3.93a4.06 4.06 0 0 0 1.08-2.37c1.74-7.2 4-2 3.5-.38 1.52-.34 2.13-3.25 2.8-6.49 13.09-5.67 8.52-12.74.38-15.74Z"/><path fill="#fcd1a9" d="M423.79 935.13c3.18 1.91 5.06 0 6.87.91s1 2.07 1.9 2.49 2.36.85 2.88 3.67c.75 4.14-2.76 6.35-4.65 6.83-1.72.43-2.37 1.45-6.4-2-1.64-1.39-.64-3.08-4.18-5.3.84-.39 3.58-6.6 3.58-6.6Z"/><path fill="url(#ao)" d="M399.19 880.34c4.5-.91 6.79.78 7.48 3.07.51 4.41 3.49 32.29 3.59 34.2 3.93 4.86 8 10.38 14.52 17.31 3.71 3.93-.82 10.25-4.67 8.06-1.69-1-16.69-12.63-20-17.63-6-7-8.25-26.74-8.65-31.54-.96-6.91 3.22-12.57 7.73-13.47Z"/></g></svg>